:SAMPLES-PER-SECOND 30
:FULLY-SPECIFIED
:DEGREES
250
root  -1.76717 40.3646 9.95141 173.085 80.8945 171.072
RightUpLeg  -14.2111 -6.70609 -6.82542
RightLeg  5.20787 13.7223 1.51318
RightFoot  17.8145 -5.11794 19.984
RightToes  -1.39699e-009 0 -3.6325e-017
Spine  12.1429 -6.88051 -20.5489
Spine1  -11.6069 -10.5416 20.8907
HEad  -19.9348 32.0885 -6.99788
LeftShoulder1  0.687501 9.84556 21.9564
LeftArm  -67.4171 -46.5131 -8.48635
LeftForeArm  -37.4378 -57.6479 -20.6247
LeftHand  -0.869149 1.91026 28.6953
RightShoulder  0.0190972 -2.87326 -6.54301
RightArm  6.13819 -11.2497 46.3136
RightForeArm  118.442 68.9379 148.26
RightHand  -0.23828 -0.953196 -6.15918
LeftUpLeg  11.7964 6.52987 4.5085
LeftLeg  10.9908 14.6906 1.51342
LeftFoot  4.24873 3.15135 -22.9378
LeftToes  3.40148e-010 1.80944e-010 1.01921e-010
251
root  -1.60466 40.366 9.91356 172.046 79.9614 170.301
RightUpLeg  -13.7196 -6.99041 -7.3895
RightLeg  5.86626 13.5286 1.50313
RightFoot  16.8206 -5.21138 21.0395
RightToes  -1.39699e-009 0 -3.6325e-017
Spine  11.8326 -7.26587 -20.4433
Spine1  -11.2633 -10.9116 20.605
HEad  -19.3678 31.7503 -6.75624
LeftShoulder1  0.59571 9.16338 21.6072
LeftArm  -64.5176 -44.3366 -9.92485
LeftForeArm  -30.3055 -60.5853 -22.9229
LeftHand  -0.979804 1.29506 27.5166
RightShoulder  0.0114799 -3.13993 -6.71424
RightArm  6.06848 -10.0159 43.0715
RightForeArm  116.019 69.3173 147.357
RightHand  -0.240452 -1.08978 -6.3978
LeftUpLeg  11.6865 7.18086 4.73767
LeftLeg  11.9234 13.3778 1.55369
LeftFoot  4.84643 3.25542 -22.8301
LeftToes  3.40148e-010 1.80944e-010 1.01921e-010
252
root  -1.51318 40.3397 9.87923 170.727 78.9516 169.074
RightUpLeg  -13.5418 -7.477 -8.17045
RightLeg  6.5851 13.6373 1.64612
RightFoot  15.6643 -5.31725 22.3528
RightToes  -1.39699e-009 0 -3.6325e-017
Spine  11.8447 -7.56948 -20.5986
Spine1  -11.0042 -11.2859 20.6751
HEad  -19.0113 31.3505 -6.88825
LeftShoulder1  0.506068 8.63723 20.8577
LeftArm  -61.5795 -41.9577 -11.1741
LeftForeArm  -23.7105 -63.6729 -25.9656
LeftHand  -1.01041 0.876947 25.7911
RightShoulder  0.00264263 -3.49092 -7.01722
RightArm  6.00102 -8.63848 39.8187
RightForeArm  113.96 69.756 146.356
RightHand  -0.243241 -1.15337 -6.56191
LeftUpLeg  11.1898 7.55598 4.58854
LeftLeg  13.0534 12.1578 1.84305
LeftFoot  5.08951 3.29287 -22.7561
LeftToes  3.40148e-010 1.80944e-010 1.01921e-010
253
root  -1.48937 40.245 9.83031 169.933 78.1665 168.272
RightUpLeg  -13.6479 -7.931 -8.93781
RightLeg  7.39932 14.1095 1.89665
RightFoot  14.0647 -5.48683 24.4528
RightToes  -1.39699e-009 0 -3.6325e-017
Spine  12.2599 -7.73603 -20.2755
Spine1  -11.063 -11.4521 20.4575
HEad  -18.5112 30.877 -7.0069
LeftShoulder1  0.404715 7.94599 20.0192
LeftArm  -58.2327 -38.8284 -11.9861
LeftForeArm  -17.8089 -66.8547 -30.1494
LeftHand  -0.988764 0.732707 24.5071
RightShoulder  -0.00832933 -4.09274 -7.53695
RightArm  5.78578 -7.30474 36.6123
RightForeArm  111.466 70.288 145.081
RightHand  -0.261566 -1.0327 -6.88762
LeftUpLeg  10.6042 7.8339 4.33067
LeftLeg  14.2431 11.0284 2.18985
LeftFoot  4.38037 3.16785 -22.869
LeftToes  3.40148e-010 1.80944e-010 1.01921e-010
254
root  -1.53447 40.0748 9.77389 169.913 77.7694 168.221
RightUpLeg  -14.0736 -8.07134 -9.45499
RightLeg  8.47427 14.6205 2.19432
RightFoot  12.1151 -5.59824 26.9251
RightToes  -1.39699e-009 0 -3.6325e-017
Spine  13.0795 -7.70974 -19.5664
Spine1  -11.296 -11.4185 20.148
HEad  -18.205 30.5178 -7.16064
LeftShoulder1  0.307788 7.15881 19.2461
LeftArm  -54.6214 -34.7892 -12.2174
LeftForeArm  -10.5226 -70.0007 -35.8143
LeftHand  -1.01364 0.527887 24.0789
RightShoulder  -0.0132998 -4.73299 -8.20545
RightArm  5.25603 -6.02179 33.2233
RightForeArm  108.891 70.7537 143.856
RightHand  -0.266954 -1.03225 -7.03143
LeftUpLeg  10.1274 8.72628 4.453
LeftLeg  15.4114 9.26615 2.17191
LeftFoot  2.45459 2.78139 -22.8391
LeftToes  3.40148e-010 1.80944e-010 1.01921e-010
255
root  -1.6685 39.8457 9.72544 170.602 77.6104 168.793
RightUpLeg  -15.0655 -7.8322 -9.68756
RightLeg  10.1272 14.7431 2.60455
RightFoot  10.113 -5.4435 28.5534
RightToes  -1.39699e-009 0 -3.6325e-017
Spine  14.3194 -7.45479 -19.0651
Spine1  -11.581 -11.2942 20.5181
HEad  -18.2982 30.3837 -7.56177
LeftShoulder1  0.24124 6.72255 18.2095
LeftArm  -51.0068 -30.381 -11.9462
LeftForeArm  -0.0461918 -73.0073 -43.6401
LeftHand  -1.08954 0.14742 24.0193
RightShoulder  -0.0108579 -5.18087 -8.87
RightArm  4.08298 -4.92484 29.3989
RightForeArm  107.202 71.0944 142.94
RightHand  -0.226919 -1.36791 -6.39869
LeftUpLeg  9.42282 10.0717 4.79539
LeftLeg  16.834 6.84843 1.99363
LeftFoot  -0.411912 2.18215 -22.5198
LeftToes  3.40148e-010 1.80944e-010 1.01921e-010
256
root  -1.90669 39.5599 9.69486 172.746 77.4041 170.62
RightUpLeg  -16.855 -7.02375 -9.55493
RightLeg  12.5626 13.8572 3.07131
RightFoot  8.22393 -4.9409 28.4332
RightToes  -1.39699e-009 0 -3.6325e-017
Spine  15.9483 -6.9989 -18.798
Spine1  -11.9291 -11.1156 21.8065
HEad  -18.3393 30.2738 -8.13231
LeftShoulder1  0.195921 6.63371 16.7989
LeftArm  -47.4791 -25.8274 -11.5076
LeftForeArm  14.0758 -75.6915 -54.9745
LeftHand  -1.11342 -0.111658 23.4059
RightShoulder  -0.00701867 -5.58999 -9.2316
RightArm  2.01359 -4.28591 25.0245
RightForeArm  105.963 71.5558 141.772
RightHand  -0.180288 -1.67081 -5.42967
LeftUpLeg  7.85541 10.516 4.95837
LeftLeg  19.1301 5.08303 2.17038
LeftFoot  -3.88695 1.48789 -22.2443
LeftToes  3.40148e-010 1.80944e-010 1.01921e-010
257
root  -2.24143 39.2093 9.69165 177.044 76.8877 174.409
RightUpLeg  -19.3547 -5.67153 -8.95916
RightLeg  15.6438 11.6682 3.34709
RightFoot  6.49468 -4.22878 26.7751
RightToes  -1.39699e-009 0 -3.6325e-017
Spine  17.7687 -6.43151 -18.4319
Spine1  -12.1501 -10.9103 23.677
HEad  -17.8652 29.915 -8.63659
LeftShoulder1  0.147034 6.45405 15.3358
LeftArm  -44.0779 -20.8271 -11.2199
LeftForeArm  32.0346 -77.6119 -70.5046
LeftHand  -1.06676 -0.223023 22.0225
RightShoulder  -0.00803205 -6.24386 -9.19475
RightArm  -0.954707 -4.21946 20.514
RightForeArm  103.736 72.3144 139.678
RightHand  -0.162142 -1.72237 -4.91402
LeftUpLeg  5.13166 9.30106 5.1557
LeftLeg  22.7677 4.90651 2.6155
LeftFoot  -7.69097 0.760094 -22.179
LeftToes  3.40148e-010 1.80944e-010 1.01921e-010
258
root  -2.65157 38.7921 9.72794 -177.701 75.7809 179.15
RightUpLeg  -22.2306 -5.00431 -7.97013
RightLeg  19.2484 9.3095 3.40694
RightFoot  4.89163 -3.52643 24.6127
RightToes  -1.39699e-009 0 -3.6325e-017
Spine  19.6007 -5.81135 -18.1487
Spine1  -11.8602 -10.8238 25.9423
HEad  -16.9085 29.2492 -8.93808
LeftShoulder1  0.0966062 6.10653 13.897
LeftArm  -40.7725 -15.5038 -11.132
LeftForeArm  52.3228 -78.4129 -87.5981
LeftHand  -1.04996 -0.505199 20.6859
RightShoulder  -0.0145303 -7.15252 -9.10417
RightArm  -4.82098 -4.58027 17.0246
RightForeArm  100.22 73.3578 136.359
RightHand  -0.139086 -1.92692 -4.36942
LeftUpLeg  1.48802 8.01492 5.88288
LeftLeg  27.7132 4.62941 2.97764
LeftFoot  -11.3892 0.05903 -22.0086
LeftToes  3.40148e-010 1.80944e-010 1.01921e-010
259
root  -3.11774 38.3105 9.81248 -173.736 73.8837 -177.144
RightUpLeg  -25.0887 -6.16572 -6.8752
RightLeg  23.358 8.05531 3.5914
RightFoot  3.30811 -2.95772 22.9088
RightToes  -1.39699e-009 0 -3.6325e-017
Spine  21.4433 -5.10089 -18.3846
Spine1  -10.8725 -10.9863 28.6001
HEad  -15.4564 28.2634 -8.89954
LeftShoulder1  0.0519455 5.86018 12.1929
LeftArm  -37.3071 -10.4986 -11.3591
LeftForeArm  71.7943 -78.3169 -102.527
LeftHand  -1.10064 -0.982774 20.0812
RightShoulder  -0.0213752 -8.1032 -9.05749
RightArm  -9.83212 -5.33672 15.4449
RightForeArm  95.3623 74.7959 130.807
RightHand  -0.0898178 -2.43387 -3.05361
LeftUpLeg  -2.60352 6.57332 6.87255
LeftLeg  33.4695 3.65802 2.95882
LeftFoot  -14.5969 -0.53036 -21.5024
LeftToes  3.40148e-010 1.80944e-010 1.01921e-010
